{
    "accessors": {
        "accessor_102": {
            "bufferView": "bufferView_110",
            "byteOffset": 132,
            "byteStride": 0,
            "componentType": 5123,
            "count": 42,
            "type": "SCALAR"
        },
        "accessor_104": {
            "bufferView": "bufferView_111",
            "byteOffset": 1088,
            "byteStride": 12,
            "componentType": 5126,
            "count": 16,
            "max": [
                74.14818572998047,
                88.68359375,
                7.650760173797607
            ],
            "min": [
                0,
                -15.426005363464355,
                7.650760173797607
            ],
            "type": "VEC3"
        },
        "accessor_106": {
            "bufferView": "bufferView_111",
            "byteOffset": 1280,
            "byteStride": 12,
            "componentType": 5126,
            "count": 16,
            "max": [
                0,
                0,
                1
            ],
            "min": [
                0,
                0,
                1
            ],
            "type": "VEC3"
        },
        "accessor_108": {
            "bufferView": "bufferView_111",
            "byteOffset": 1472,
            "byteStride": 8,
            "componentType": 5126,
            "count": 16,
            "max": [
                0.8359280228614807,
                0.8708990216255188
            ],
            "min": [
                0.42052599787712097,
                0.00672602653503418
            ],
            "type": "VEC2"
        },
        "accessor_21": {
            "bufferView": "bufferView_110",
            "byteOffset": 216,
            "byteStride": 0,
            "componentType": 5123,
            "count": 96,
            "type": "SCALAR"
        },
        "accessor_23": {
            "bufferView": "bufferView_111",
            "byteOffset": 1600,
            "byteStride": 12,
            "componentType": 5126,
            "count": 64,
            "max": [
                74.14818572998047,
                88.68359375,
                7.650760173797607
            ],
            "min": [
                0,
                -15.426005363464355,
                0
            ],
            "type": "VEC3"
        },
        "accessor_25": {
            "bufferView": "bufferView_111",
            "byteOffset": 2368,
            "byteStride": 12,
            "componentType": 5126,
            "count": 64,
            "max": [
                0.9489459991455078,
                0.9571369886398315,
                0
            ],
            "min": [
                -0.9517620205879211,
                -0.9436209797859192,
                0
            ],
            "type": "VEC3"
        },
        "accessor_27": {
            "bufferView": "bufferView_111",
            "byteOffset": 3136,
            "byteStride": 8,
            "componentType": 5126,
            "count": 64,
            "max": [
                0.9775660037994385,
                0.5962589979171753
            ],
            "min": [
                0.003672060091048479,
                0.0061370134353637695
            ],
            "type": "VEC2"
        },
        "accessor_48": {
            "bufferView": "bufferView_110",
            "byteOffset": 0,
            "byteStride": 0,
            "componentType": 5123,
            "count": 24,
            "type": "SCALAR"
        },
        "accessor_50": {
            "bufferView": "bufferView_111",
            "byteOffset": 0,
            "byteStride": 12,
            "componentType": 5126,
            "count": 18,
            "max": [
                67.55561828613281,
                63.252349853515625,
                9.9574613571167
            ],
            "min": [
                35.350704193115234,
                38.498268127441406,
                7.650760173797607
            ],
            "type": "VEC3"
        },
        "accessor_52": {
            "bufferView": "bufferView_111",
            "byteOffset": 216,
            "byteStride": 12,
            "componentType": 5126,
            "count": 18,
            "max": [
                0.9463030099868774,
                0.3232809901237488,
                0.9628629684448242
            ],
            "min": [
                -0.9463030099868774,
                -0.3232809901237488,
                -1
            ],
            "type": "VEC3"
        },
        "accessor_54": {
            "bufferView": "bufferView_111",
            "byteOffset": 432,
            "byteStride": 8,
            "componentType": 5126,
            "count": 18,
            "max": [
                0.7220000624656677,
                0.8218780159950256
            ],
            "min": [
                0.00585938012227416,
                0.31054699420928955
            ],
            "type": "VEC2"
        },
        "accessor_75": {
            "bufferView": "bufferView_110",
            "byteOffset": 48,
            "byteStride": 0,
            "componentType": 5123,
            "count": 42,
            "type": "SCALAR"
        },
        "accessor_77": {
            "bufferView": "bufferView_111",
            "byteOffset": 576,
            "byteStride": 12,
            "componentType": 5126,
            "count": 16,
            "max": [
                74.14818572998047,
                88.68359375,
                0
            ],
            "min": [
                0,
                -15.426005363464355,
                0
            ],
            "type": "VEC3"
        },
        "accessor_79": {
            "bufferView": "bufferView_111",
            "byteOffset": 768,
            "byteStride": 12,
            "componentType": 5126,
            "count": 16,
            "max": [
                0,
                0,
                -1
            ],
            "min": [
                0,
                0,
                -1
            ],
            "type": "VEC3"
        },
        "accessor_81": {
            "bufferView": "bufferView_111",
            "byteOffset": 960,
            "byteStride": 8,
            "componentType": 5126,
            "count": 16,
            "max": [
                0.41667699813842773,
                0.8673509955406189
            ],
            "min": [
                0.0012739800149574876,
                0.0031690001487731934
            ],
            "type": "VEC2"
        }
    },
    "animations": {},
    "asset": {
        "generator": "collada2gltf@",
        "premultipliedAlpha": true,
        "profile": {
            "api": "WebGL",
            "version": "1.0.2"
        },
        "version": 1
    },
    "bufferViews": {
        "bufferView_110": {
            "buffer": "anex",
            "byteLength": 408,
            "byteOffset": 0,
            "target": 34963
        },
        "bufferView_111": {
            "buffer": "anex",
            "byteLength": 3648,
            "byteOffset": 408,
            "target": 34962
        }
    },
    "buffers": {
        "anex": {
            "byteLength": 4056,
            "type": "arraybuffer",
            "uri": "data:application/octet-stream;base64,"
        }
    },
    "images": {
        "ID28": {
            "name": "ID28",
            "uri": "data:image/jpeg;base64,"
        },
        "ID7": {
            "name": "ID7",
            "uri": "data:image/jpeg;base64,"
        }
    },
    "materials": {
        "ID27": {
            "name": "__auto_2",
            "technique": "technique0",
            "values": {
                "diffuse": "texture_ID28"
            }
        },
        "ID6": {
            "name": "__auto_1",
            "technique": "technique0",
            "values": {
                "diffuse": "texture_ID7"
            }
        }
    },
    "meshes": {
        "ID17": {
            "name": "ID17",
            "primitives": [
                {
                    "attributes": {
                        "NORMAL": "accessor_52",
                        "POSITION": "accessor_50",
                        "TEXCOORD_0": "accessor_54"
                    },
                    "indices": "accessor_48",
                    "material": "ID6",
                    "mode": 4
                }
            ]
        },
        "ID25": {
            "name": "ID25",
            "primitives": [
                {
                    "attributes": {
                        "NORMAL": "accessor_79",
                        "POSITION": "accessor_77",
                        "TEXCOORD_0": "accessor_81"
                    },
                    "indices": "accessor_75",
                    "material": "ID27",
                    "mode": 4
                }
            ]
        },
        "ID38": {
            "name": "ID38",
            "primitives": [
                {
                    "attributes": {
                        "NORMAL": "accessor_106",
                        "POSITION": "accessor_104",
                        "TEXCOORD_0": "accessor_108"
                    },
                    "indices": "accessor_102",
                    "material": "ID27",
                    "mode": 4
                }
            ]
        },
        "ID4": {
            "name": "ID4",
            "primitives": [
                {
                    "attributes": {
                        "NORMAL": "accessor_25",
                        "POSITION": "accessor_23",
                        "TEXCOORD_0": "accessor_27"
                    },
                    "indices": "accessor_21",
                    "material": "ID6",
                    "mode": 4
                }
            ]
        }
    },
    "nodes": {
        "ID2": {
            "children": [
                "ID3"
            ],
            "matrix": [
                1,
                0,
                0,
                0,
                0,
                1,
                0,
                0,
                0,
                0,
                1,
                0,
                0,
                0,
                0,
                1
            ],
            "name": "instance_0"
        },
        "ID3": {
            "children": [],
            "matrix": [
                1,
                0,
                0,
                0,
                0,
                1,
                0,
                0,
                0,
                0,
                1,
                0,
                0,
                0,
                0,
                1
            ],
            "meshes": [
                "ID4",
                "ID17",
                "ID25",
                "ID38"
            ],
            "name": "skp8553"
        },
        "node_0": {
            "children": [
                "ID2"
            ],
            "matrix": [
                1,
                0,
                0,
                0,
                0,
                1,
                0,
                0,
                0,
                0,
                1,
                0,
                0,
                0,
                0,
                1
            ],
            "name": "SketchUp"
        },
        "node_3": {
            "children": [
                "node_0"
            ],
            "matrix": [
                1,
                0,
                0,
                0,
                0,
                0,
                -1,
                0,
                0,
                1,
                0,
                0,
                0,
                0,
                0,
                1
            ],
            "name": "Y_UP_Transform"
        }
    },
    "programs": {
        "program_0": {
            "attributes": [
                "a_normal",
                "a_position",
                "a_texcoord0"
            ],
            "fragmentShader": "anex0FS",
            "vertexShader": "anex0VS"
        }
    },
    "samplers": {
        "sampler_0": {
            "magFilter": 9729,
            "minFilter": 9729,
            "wrapS": 10497,
            "wrapT": 10497
        }
    },
    "scene": "defaultScene",
    "scenes": {
        "defaultScene": {
            "nodes": [
                "node_3"
            ]
        }
    },
    "shaders": {
        "anex0FS": {
            "type": 35632,
            "uri": "data:text/plain;base64,"
        },
        "anex0VS": {
            "type": 35633,
            "uri": "data:text/plain;base64,"
        }
    },
    "skins": {},
    "techniques": {
        "technique0": {
            "attributes": {
                "a_normal": "normal",
                "a_position": "position",
                "a_texcoord0": "texcoord0"
            },
            "parameters": {
                "diffuse": {
                    "type": 35678
                },
                "modelViewMatrix": {
                    "semantic": "MODELVIEW",
                    "type": 35676
                },
                "normal": {
                    "semantic": "NORMAL",
                    "type": 35665
                },
                "normalMatrix": {
                    "semantic": "MODELVIEWINVERSETRANSPOSE",
                    "type": 35675
                },
                "position": {
                    "semantic": "POSITION",
                    "type": 35665
                },
                "projectionMatrix": {
                    "semantic": "PROJECTION",
                    "type": 35676
                },
                "texcoord0": {
                    "semantic": "TEXCOORD_0",
                    "type": 35664
                }
            },
            "program": "program_0",
            "states": {
                "enable": [
                    2929,
                    2884
                ]
            },
            "uniforms": {
                "u_diffuse": "diffuse",
                "u_modelViewMatrix": "modelViewMatrix",
                "u_normalMatrix": "normalMatrix",
                "u_projectionMatrix": "projectionMatrix"
            }
        }
    },
    "textures": {
        "texture_ID28": {
            "format": 6408,
            "internalFormat": 6408,
            "sampler": "sampler_0",
            "source": "ID28",
            "target": 3553,
            "type": 5121
        },
        "texture_ID7": {
            "format": 6408,
            "internalFormat": 6408,
            "sampler": "sampler_0",
            "source": "ID7",
            "target": 3553,
            "type": 5121
        }
    }
}