{"accessors":{"accessor_156":{"bufferView":"bufferView_417","byteOffset":96,"byteStride":0,"componentType":5123,"count":147,"type":"SCALAR"},"accessor_159":{"bufferView":"bufferView_417","byteOffset":390,"byteStride":0,"componentType":5123,"count":96,"type":"SCALAR"},"accessor_162":{"bufferView":"bufferView_417","byteOffset":582,"byteStride":0,"componentType":5123,"count":141,"type":"SCALAR"},"accessor_165":{"bufferView":"bufferView_417","byteOffset":864,"byteStride":0,"componentType":5123,"count":360,"type":"SCALAR"},"accessor_168":{"bufferView":"bufferView_417","byteOffset":1584,"byteStride":0,"componentType":5123,"count":390,"type":"SCALAR"},"accessor_170":{"bufferView":"bufferView_418","byteOffset":960,"byteStride":12,"componentType":5126,"count":649,"max":[88.9788,82.58,5.35],"min":[-101.103,-75.1838,0],"type":"VEC3"},"accessor_172":{"bufferView":"bufferView_418","byteOffset":8748,"byteStride":12,"componentType":5126,"count":649,"max":[0.92582,1,1],"min":[-0.949383,-0.999025,-1],"type":"VEC3"},"accessor_174":{"bufferView":"bufferView_418","byteOffset":16536,"byteStride":8,"componentType":5126,"count":649,"max":[3980.43,2960.99],"min":[-3503.1,-3250.18],"type":"VEC2"},"accessor_246":{"bufferView":"bufferView_417","byteOffset":2364,"byteStride":0,"componentType":5123,"count":63,"type":"SCALAR"},"accessor_249":{"bufferView":"bufferView_417","byteOffset":2490,"byteStride":0,"componentType":5123,"count":24,"type":"SCALAR"},"accessor_252":{"bufferView":"bufferView_417","byteOffset":2538,"byteStride":0,"componentType":5123,"count":24,"type":"SCALAR"},"accessor_255":{"bufferView":"bufferView_417","byteOffset":2586,"byteStride":0,"componentType":5123,"count":15,"type":"SCALAR"},"accessor_257":{"bufferView":"bufferView_418","byteOffset":21728,"byteStride":12,"componentType":5126,"count":76,"max":[11.1857,80.2545,4.3],"min":[-7.5203,29.525,0],"type":"VEC3"},"accessor_259":{"bufferView":"bufferView_418","byteOffset":22640,"byteStride":12,"componentType":5126,"count":76,"max":[1,0.9036,1],"min":[-0.754443,-0.751846,-1],"type":"VEC3"},"accessor_261":{"bufferView":"bufferView_418","byteOffset":23552,"byteStride":8,"componentType":5126,"count":76,"max":[296.075,8.01345],"min":[-440.382,-3158.63],"type":"VEC2"},"accessor_316":{"bufferView":"bufferView_417","byteOffset":2616,"byteStride":0,"componentType":5123,"count":6,"type":"SCALAR"},"accessor_319":{"bufferView":"bufferView_417","byteOffset":2628,"byteStride":0,"componentType":5123,"count":24,"type":"SCALAR"},"accessor_322":{"bufferView":"bufferView_417","byteOffset":2676,"byteStride":0,"componentType":5123,"count":6,"type":"SCALAR"},"accessor_324":{"bufferView":"bufferView_418","byteOffset":24160,"byteStride":12,"componentType":5126,"count":24,"max":[41.3394,43.658,4.3],"min":[15.9222,31.4751,0],"type":"VEC3"},"accessor_326":{"bufferView":"bufferView_418","byteOffset":24448,"byteStride":12,"componentType":5126,"count":24,"max":[0.790734,0.9036,0.99834],"min":[-1,-0.751846,-1],"type":"VEC3"},"accessor_328":{"bufferView":"bufferView_418","byteOffset":24736,"byteStride":8,"componentType":5126,"count":24,"max":[14.6606,6.72525],"min":[-1627.54,-1717.82],"type":"VEC2"},"accessor_400":{"bufferView":"bufferView_417","byteOffset":2688,"byteStride":0,"componentType":5123,"count":24,"type":"SCALAR"},"accessor_403":{"bufferView":"bufferView_417","byteOffset":2736,"byteStride":0,"componentType":5123,"count":51,"type":"SCALAR"},"accessor_406":{"bufferView":"bufferView_417","byteOffset":2838,"byteStride":0,"componentType":5123,"count":102,"type":"SCALAR"},"accessor_409":{"bufferView":"bufferView_417","byteOffset":3042,"byteStride":0,"componentType":5123,"count":15,"type":"SCALAR"},"accessor_411":{"bufferView":"bufferView_418","byteOffset":24928,"byteStride":12,"componentType":5126,"count":116,"max":[35.655,101.202,3.99795],"min":[6.76532,72.2541,0],"type":"VEC3"},"accessor_413":{"bufferView":"bufferView_418","byteOffset":26320,"byteStride":12,"componentType":5126,"count":116,"max":[0.86249,0.891344,1],"min":[-0.894203,-0.881641,-1],"type":"VEC3"},"accessor_415":{"bufferView":"bufferView_418","byteOffset":27712,"byteStride":8,"componentType":5126,"count":116,"max":[27.6317,22.0552],"min":[-1403.74,-3983.35],"type":"VEC2"},"accessor_55":{"bufferView":"bufferView_417","byteOffset":0,"byteStride":0,"componentType":5123,"count":30,"type":"SCALAR"},"accessor_58":{"bufferView":"bufferView_417","byteOffset":60,"byteStride":0,"componentType":5123,"count":12,"type":"SCALAR"},"accessor_61":{"bufferView":"bufferView_417","byteOffset":84,"byteStride":0,"componentType":5123,"count":6,"type":"SCALAR"},"accessor_63":{"bufferView":"bufferView_418","byteOffset":0,"byteStride":12,"componentType":5126,"count":30,"max":[-113.712,101.411,5.62],"min":[-130.133,86.2681,0],"type":"VEC3"},"accessor_65":{"bufferView":"bufferView_418","byteOffset":360,"byteStride":12,"componentType":5126,"count":30,"max":[0.88164,0.88164,0.992548],"min":[-0.88164,-0.88164,-1],"type":"VEC3"},"accessor_67":{"bufferView":"bufferView_418","byteOffset":720,"byteStride":8,"componentType":5126,"count":30,"max":[5123.36,1.48549],"min":[-51.6243,-3991.58],"type":"VEC2"}},"animations":{},"asset":{"generator":"collada2gltf@","premultipliedAlpha":true,"profile":"WebGL 1.0.2","version":0.8},"bufferViews":{"bufferView_417":{"buffer":"model","byteLength":3072,"byteOffset":0,"target":34963},"bufferView_418":{"buffer":"model","byteLength":28640,"byteOffset":3072,"target":34962}},"buffers":{"model":{"byteLength":31712,"type":"arraybuffer","uri":"data:application/octet-stream;base64,"}},"cameras":{"camera_0":{"perspective":{"xfov":46.6667,"yfov":35,"zfar":25.4,"znear":0.0254},"type":"perspective"}},"images":{"material_0_1_0-image":{"uri":"data:image/jpeg;base64,"},"material_1_2_0-image":{"uri":"data:image/jpeg;base64,"},"material_2_3_0-image":{"uri":"data:image/jpeg;base64,"},"material_3_4_0-image":{"uri":"data:image/jpeg;base64,"},"material_4_5_0-image":{"uri":"data:image/jpeg;base64,"},"material_5_6_0-image":{"uri":"data:image/jpeg;base64,"},"material_6_7_0-image":{"uri":"data:image/jpeg;base64,"},"material_8_8_0-image":{"uri":"data:image/jpeg;base64,"}},"materials":{"material_0_1_0-effect":{"instanceTechnique":{"technique":"technique0","values":{"ambient":[0,0,0,1],"diffuse":"texture_material_0_1_0-image","emission":[0,0,0,1]}},"name":"material_0_1_0"},"material_1_2_0-effect":{"instanceTechnique":{"technique":"technique0","values":{"ambient":[0,0,0,1],"diffuse":"texture_material_1_2_0-image","emission":[0,0,0,1]}},"name":"material_1_2_0"},"material_2_3_0-effect":{"instanceTechnique":{"technique":"technique0","values":{"ambient":[0,0,0,1],"diffuse":"texture_material_2_3_0-image","emission":[0,0,0,1]}},"name":"material_2_3_0"},"material_3_4_0-effect":{"instanceTechnique":{"technique":"technique0","values":{"ambient":[0,0,0,1],"diffuse":"texture_material_3_4_0-image","emission":[0,0,0,1]}},"name":"material_3_4_0"},"material_4_5_0-effect":{"instanceTechnique":{"technique":"technique0","values":{"ambient":[0,0,0,1],"diffuse":"texture_material_4_5_0-image","emission":[0,0,0,1]}},"name":"material_4_5_0"},"material_5_6_0-effect":{"instanceTechnique":{"technique":"technique0","values":{"ambient":[0,0,0,1],"diffuse":"texture_material_5_6_0-image","emission":[0,0,0,1]}},"name":"material_5_6_0"},"material_6_7_0-effect":{"instanceTechnique":{"technique":"technique0","values":{"ambient":[0,0,0,1],"diffuse":"texture_material_6_7_0-image","emission":[0,0,0,1]}},"name":"material_6_7_0"},"material_7_0-effect":{"instanceTechnique":{"technique":"technique1","values":{"ambient":[0,0,0,1],"diffuse":[0.890196,0.882353,0.870588,1],"emission":[0,0,0,1]}},"name":"material_7_0"},"material_8_8_0-effect":{"instanceTechnique":{"technique":"technique0","values":{"ambient":[0,0,0,1],"diffuse":"texture_material_8_8_0-image","emission":[0,0,0,1]}},"name":"material_8_8_0"}},"meshes":{"mesh1-geometry":{"name":"mesh1-geometry","primitives":[{"attributes":{"NORMAL":"accessor_65","POSITION":"accessor_63","TEXCOORD_0":"accessor_67"},"indices":"accessor_55","material":"material_0_1_0-effect","primitive":4},{"attributes":{"NORMAL":"accessor_65","POSITION":"accessor_63","TEXCOORD_0":"accessor_67"},"indices":"accessor_58","material":"material_8_8_0-effect","primitive":4},{"attributes":{"NORMAL":"accessor_65","POSITION":"accessor_63","TEXCOORD_0":"accessor_67"},"indices":"accessor_61","material":"material_7_0-effect","primitive":4}]},"mesh2-geometry":{"name":"mesh2-geometry","primitives":[{"attributes":{"NORMAL":"accessor_172","POSITION":"accessor_170","TEXCOORD_0":"accessor_174"},"indices":"accessor_156","material":"material_1_2_0-effect","primitive":4},{"attributes":{"NORMAL":"accessor_172","POSITION":"accessor_170","TEXCOORD_0":"accessor_174"},"indices":"accessor_159","material":"material_2_3_0-effect","primitive":4},{"attributes":{"NORMAL":"accessor_172","POSITION":"accessor_170","TEXCOORD_0":"accessor_174"},"indices":"accessor_162","material":"material_7_0-effect","primitive":4},{"attributes":{"NORMAL":"accessor_172","POSITION":"accessor_170","TEXCOORD_0":"accessor_174"},"indices":"accessor_165","material":"material_3_4_0-effect","primitive":4},{"attributes":{"NORMAL":"accessor_172","POSITION":"accessor_170","TEXCOORD_0":"accessor_174"},"indices":"accessor_168","material":"material_4_5_0-effect","primitive":4}]},"mesh3-geometry":{"name":"mesh3-geometry","primitives":[{"attributes":{"NORMAL":"accessor_259","POSITION":"accessor_257","TEXCOORD_0":"accessor_261"},"indices":"accessor_246","material":"material_5_6_0-effect","primitive":4},{"attributes":{"NORMAL":"accessor_259","POSITION":"accessor_257","TEXCOORD_0":"accessor_261"},"indices":"accessor_249","material":"material_7_0-effect","primitive":4},{"attributes":{"NORMAL":"accessor_259","POSITION":"accessor_257","TEXCOORD_0":"accessor_261"},"indices":"accessor_252","material":"material_4_5_0-effect","primitive":4},{"attributes":{"NORMAL":"accessor_259","POSITION":"accessor_257","TEXCOORD_0":"accessor_261"},"indices":"accessor_255","material":"material_6_7_0-effect","primitive":4}]},"mesh4-geometry":{"name":"mesh4-geometry","primitives":[{"attributes":{"NORMAL":"accessor_326","POSITION":"accessor_324","TEXCOORD_0":"accessor_328"},"indices":"accessor_316","material":"material_6_7_0-effect","primitive":4},{"attributes":{"NORMAL":"accessor_326","POSITION":"accessor_324","TEXCOORD_0":"accessor_328"},"indices":"accessor_319","material":"material_5_6_0-effect","primitive":4},{"attributes":{"NORMAL":"accessor_326","POSITION":"accessor_324","TEXCOORD_0":"accessor_328"},"indices":"accessor_322","material":"material_7_0-effect","primitive":4}]},"mesh5-geometry":{"name":"mesh5-geometry","primitives":[{"attributes":{"NORMAL":"accessor_413","POSITION":"accessor_411","TEXCOORD_0":"accessor_415"},"indices":"accessor_400","material":"material_6_7_0-effect","primitive":4},{"attributes":{"NORMAL":"accessor_413","POSITION":"accessor_411","TEXCOORD_0":"accessor_415"},"indices":"accessor_403","material":"material_4_5_0-effect","primitive":4},{"attributes":{"NORMAL":"accessor_413","POSITION":"accessor_411","TEXCOORD_0":"accessor_415"},"indices":"accessor_406","material":"material_5_6_0-effect","primitive":4},{"attributes":{"NORMAL":"accessor_413","POSITION":"accessor_411","TEXCOORD_0":"accessor_415"},"indices":"accessor_409","material":"material_7_0-effect","primitive":4}]}},"nodes":{"Camera":{"camera":"camera_0","children":[],"matrix":[-0.942238,0.334944,0,0,-0.193169,-0.543409,0.816941,0,0.273629,0.769753,0.576722,0,-51.2172,227.054,125.481,1],"name":"Camera"},"Model":{"children":["mesh1","mesh2","mesh3","mesh4","mesh5"],"matrix":[1,0,0,0,0,1,0,0,0,0,1,0,0,0,0,1],"name":"Model"},"mesh1":{"children":[],"matrix":[1,0,0,0,0,1,0,0,0,0,1,0,0,0,0,1],"meshes":["mesh1-geometry"],"name":"mesh1"},"mesh2":{"children":[],"matrix":[1,0,0,0,0,1,0,0,0,0,1,0,0,0,0,1],"meshes":["mesh2-geometry"],"name":"mesh2"},"mesh3":{"children":[],"matrix":[1,0,0,0,0,1,0,0,0,0,1,0,0,0,0,1],"meshes":["mesh3-geometry"],"name":"mesh3"},"mesh4":{"children":[],"matrix":[1,0,0,0,0,1,0,0,0,0,1,0,0,0,0,1],"meshes":["mesh4-geometry"],"name":"mesh4"},"mesh5":{"children":[],"matrix":[1,0,0,0,0,1,0,0,0,0,1,0,0,0,0,1],"meshes":["mesh5-geometry"],"name":"mesh5"},"node_7":{"children":["Model","Camera"],"matrix":[1,0,0,0,0,0,-1,0,0,1,0,0,0,0,0,1],"name":"Y_UP_Transform"}},"programs":{"program_0":{"attributes":["a_normal","a_position","a_texcoord0"],"fragmentShader":"model0FS","vertexShader":"model0VS"},"program_1":{"attributes":["a_normal","a_position"],"fragmentShader":"model1FS","vertexShader":"model1VS"}},"samplers":{"sampler_0":{"magFilter":9729,"minFilter":9729,"wrapS":10497,"wrapT":10497}},"scene":"defaultScene","scenes":{"defaultScene":{"nodes":["node_7"]}},"shaders":{"model0FS":{"type":35632,"uri":"data:text/plain;base64,"},"model0VS":{"type":35633,"uri":"data:text/plain;base64,"},"model1FS":{"type":35632,"uri":"data:text/plain;base64,"},"model1VS":{"type":35633,"uri":"data:text/plain;base64,"}},"skins":{},"techniques":{"technique0":{"parameters":{"ambient":{"type":35666},"diffuse":{"type":35678},"emission":{"type":35666},"modelViewMatrix":{"semantic":"MODELVIEW","type":35676},"normal":{"semantic":"NORMAL","type":35665},"normalMatrix":{"semantic":"MODELVIEWINVERSETRANSPOSE","type":35675},"position":{"semantic":"POSITION","type":35665},"projectionMatrix":{"semantic":"PROJECTION","type":35676},"texcoord0":{"semantic":"TEXCOORD_0","type":35664}},"pass":"defaultPass","passes":{"defaultPass":{"details":{"commonProfile":{"extras":{"doubleSided":true},"lightingModel":"Lambert","parameters":["ambient","diffuse","emission","modelViewMatrix","normalMatrix","projectionMatrix"],"texcoordBindings":{"diffuse":"TEXCOORD_0"}},"type":"COLLADA-1.4.1/commonProfile"},"instanceProgram":{"attributes":{"a_normal":"normal","a_position":"position","a_texcoord0":"texcoord0"},"program":"program_0","uniforms":{"u_ambient":"ambient","u_diffuse":"diffuse","u_emission":"emission","u_modelViewMatrix":"modelViewMatrix","u_normalMatrix":"normalMatrix","u_projectionMatrix":"projectionMatrix"}},"states":{"enable":[2929]}}}},"technique1":{"parameters":{"ambient":{"type":35666},"diffuse":{"type":35666},"emission":{"type":35666},"modelViewMatrix":{"semantic":"MODELVIEW","type":35676},"normal":{"semantic":"NORMAL","type":35665},"normalMatrix":{"semantic":"MODELVIEWINVERSETRANSPOSE","type":35675},"position":{"semantic":"POSITION","type":35665},"projectionMatrix":{"semantic":"PROJECTION","type":35676}},"pass":"defaultPass","passes":{"defaultPass":{"details":{"commonProfile":{"extras":{"doubleSided":true},"lightingModel":"Lambert","parameters":["ambient","diffuse","emission","modelViewMatrix","normalMatrix","projectionMatrix"]},"type":"COLLADA-1.4.1/commonProfile"},"instanceProgram":{"attributes":{"a_normal":"normal","a_position":"position"},"program":"program_1","uniforms":{"u_ambient":"ambient","u_diffuse":"diffuse","u_emission":"emission","u_modelViewMatrix":"modelViewMatrix","u_normalMatrix":"normalMatrix","u_projectionMatrix":"projectionMatrix"}},"states":{"enable":[2929]}}}}},"textures":{"texture_material_0_1_0-image":{"format":6408,"internalFormat":6408,"sampler":"sampler_0","source":"material_0_1_0-image","target":3553,"type":5121},"texture_material_1_2_0-image":{"format":6408,"internalFormat":6408,"sampler":"sampler_0","source":"material_1_2_0-image","target":3553,"type":5121},"texture_material_2_3_0-image":{"format":6408,"internalFormat":6408,"sampler":"sampler_0","source":"material_2_3_0-image","target":3553,"type":5121},"texture_material_3_4_0-image":{"format":6408,"internalFormat":6408,"sampler":"sampler_0","source":"material_3_4_0-image","target":3553,"type":5121},"texture_material_4_5_0-image":{"format":6408,"internalFormat":6408,"sampler":"sampler_0","source":"material_4_5_0-image","target":3553,"type":5121},"texture_material_5_6_0-image":{"format":6408,"internalFormat":6408,"sampler":"sampler_0","source":"material_5_6_0-image","target":3553,"type":5121},"texture_material_6_7_0-image":{"format":6408,"internalFormat":6408,"sampler":"sampler_0","source":"material_6_7_0-image","target":3553,"type":5121},"texture_material_8_8_0-image":{"format":6408,"internalFormat":6408,"sampler":"sampler_0","source":"material_8_8_0-image","target":3553,"type":5121}}}