{
    "accessors": {
        "accessor_21": {
            "bufferView": "bufferView_56",
            "byteOffset": 24,
            "byteStride": 0,
            "componentType": 5123,
            "count": 24,
            "type": "SCALAR"
        },
        "accessor_23": {
            "bufferView": "bufferView_57",
            "byteOffset": 256,
            "byteStride": 12,
            "componentType": 5126,
            "count": 16,
            "max": [
                118.89002990722656,
                110.74805450439453,
                15.955595016479492
            ],
            "min": [
                0,
                -27.690065383911133,
                0
            ],
            "type": "VEC3"
        },
        "accessor_25": {
            "bufferView": "bufferView_57",
            "byteOffset": 448,
            "byteStride": 12,
            "componentType": 5126,
            "count": 16,
            "max": [
                0.9463080167770386,
                0.9463070034980774,
                0
            ],
            "min": [
                -0.3232690095901489,
                -0.9463070034980774,
                -1
            ],
            "type": "VEC3"
        },
        "accessor_27": {
            "bufferView": "bufferView_57",
            "byteOffset": 640,
            "byteStride": 8,
            "componentType": 5126,
            "count": 16,
            "max": [
                0.8995919823646545,
                0.9298895001411438
            ],
            "min": [
                0.0010974099859595299,
                0.0021499991416931152
            ],
            "type": "VEC2"
        },
        "accessor_48": {
            "bufferView": "bufferView_56",
            "byteOffset": 0,
            "byteStride": 0,
            "componentType": 5123,
            "count": 12,
            "type": "SCALAR"
        },
        "accessor_50": {
            "bufferView": "bufferView_57",
            "byteOffset": 0,
            "byteStride": 12,
            "componentType": 5126,
            "count": 8,
            "max": [
                118.89002990722656,
                110.74805450439453,
                15.955595016479492
            ],
            "min": [
                0,
                -27.690065383911133,
                0
            ],
            "type": "VEC3"
        },
        "accessor_52": {
            "bufferView": "bufferView_57",
            "byteOffset": 96,
            "byteStride": 12,
            "componentType": 5126,
            "count": 8,
            "max": [
                0,
                0.3232690095901489,
                1
            ],
            "min": [
                -0.9463070034980774,
                0,
                0
            ],
            "type": "VEC3"
        },
        "accessor_54": {
            "bufferView": "bufferView_57",
            "byteOffset": 192,
            "byteStride": 8,
            "componentType": 5126,
            "count": 8,
            "max": [
                0.5233169794082642,
                0.9279363751411438
            ],
            "min": [
                0.0010974099859595299,
                0.002933025360107422
            ],
            "type": "VEC2"
        }
    },
    "animations": {},
    "asset": {
        "generator": "collada2gltf@",
        "premultipliedAlpha": true,
        "profile": {
            "api": "WebGL",
            "version": "1.0.2"
        },
        "version": 1
    },
    "bufferViews": {
        "bufferView_56": {
            "buffer": "s14 (3)",
            "byteLength": 72,
            "byteOffset": 0,
            "target": 34963
        },
        "bufferView_57": {
            "buffer": "s14 (3)",
            "byteLength": 768,
            "byteOffset": 72,
            "target": 34962
        }
    },
    "buffers": {
        "s14 (3)": {
            "byteLength": 840,
            "type": "arraybuffer",
            "uri": "data:application/octet-stream;base64,"
        }
    },
    "images": {
        "ID20": {
            "name": "ID20",
            "uri": "data:image/jpeg;base64,"
        },
        "ID7": {
            "name": "ID7",
            "uri": "data:image/jpeg;base64,"
        }
    },
    "materials": {
        "ID19": {
            "name": "__auto_1",
            "technique": "technique0",
            "values": {
                "diffuse": "texture_ID20"
            }
        },
        "ID6": {
            "name": "__auto_",
            "technique": "technique0",
            "values": {
                "diffuse": "texture_ID7"
            }
        }
    },
    "meshes": {
        "ID17": {
            "name": "ID17",
            "primitives": [
                {
                    "attributes": {
                        "NORMAL": "accessor_52",
                        "POSITION": "accessor_50",
                        "TEXCOORD_0": "accessor_54"
                    },
                    "indices": "accessor_48",
                    "material": "ID19",
                    "mode": 4
                }
            ]
        },
        "ID4": {
            "name": "ID4",
            "primitives": [
                {
                    "attributes": {
                        "NORMAL": "accessor_25",
                        "POSITION": "accessor_23",
                        "TEXCOORD_0": "accessor_27"
                    },
                    "indices": "accessor_21",
                    "material": "ID6",
                    "mode": 4
                }
            ]
        }
    },
    "nodes": {
        "ID2": {
            "children": [
                "ID3"
            ],
            "matrix": [
                1,
                0,
                0,
                0,
                0,
                1,
                0,
                0,
                0,
                0,
                1,
                0,
                0,
                0,
                0,
                1
            ],
            "name": "instance_0"
        },
        "ID3": {
            "children": [],
            "matrix": [
                1,
                0,
                0,
                0,
                0,
                1,
                0,
                0,
                0,
                0,
                1,
                0,
                0,
                0,
                0,
                1
            ],
            "meshes": [
                "ID4",
                "ID17"
            ],
            "name": "skpB208"
        },
        "node_0": {
            "children": [
                "ID2"
            ],
            "matrix": [
                1,
                0,
                0,
                0,
                0,
                1,
                0,
                0,
                0,
                0,
                1,
                0,
                0,
                0,
                0,
                1
            ],
            "name": "SketchUp"
        },
        "node_3": {
            "children": [
                "node_0"
            ],
            "matrix": [
                1,
                0,
                0,
                0,
                0,
                0,
                -1,
                0,
                0,
                1,
                0,
                0,
                0,
                0,
                0,
                1
            ],
            "name": "Y_UP_Transform"
        }
    },
    "programs": {
        "program_0": {
            "attributes": [
                "a_normal",
                "a_position",
                "a_texcoord0"
            ],
            "fragmentShader": "s14 (3)0FS",
            "vertexShader": "s14 (3)0VS"
        }
    },
    "samplers": {
        "sampler_0": {
            "magFilter": 9729,
            "minFilter": 9729,
            "wrapS": 10497,
            "wrapT": 10497
        }
    },
    "scene": "defaultScene",
    "scenes": {
        "defaultScene": {
            "nodes": [
                "node_3"
            ]
        }
    },
    "shaders": {
        "s14 (3)0FS": {
            "type": 35632,
            "uri": "data:text/plain;base64,"
        },
        "s14 (3)0VS": {
            "type": 35633,
            "uri": "data:text/plain;base64,"
        }
    },
    "skins": {},
    "techniques": {
        "technique0": {
            "attributes": {
                "a_normal": "normal",
                "a_position": "position",
                "a_texcoord0": "texcoord0"
            },
            "parameters": {
                "diffuse": {
                    "type": 35678
                },
                "modelViewMatrix": {
                    "semantic": "MODELVIEW",
                    "type": 35676
                },
                "normal": {
                    "semantic": "NORMAL",
                    "type": 35665
                },
                "normalMatrix": {
                    "semantic": "MODELVIEWINVERSETRANSPOSE",
                    "type": 35675
                },
                "position": {
                    "semantic": "POSITION",
                    "type": 35665
                },
                "projectionMatrix": {
                    "semantic": "PROJECTION",
                    "type": 35676
                },
                "texcoord0": {
                    "semantic": "TEXCOORD_0",
                    "type": 35664
                }
            },
            "program": "program_0",
            "states": {
                "enable": [
                    2929,
                    2884
                ]
            },
            "uniforms": {
                "u_diffuse": "diffuse",
                "u_modelViewMatrix": "modelViewMatrix",
                "u_normalMatrix": "normalMatrix",
                "u_projectionMatrix": "projectionMatrix"
            }
        }
    },
    "textures": {
        "texture_ID20": {
            "format": 6408,
            "internalFormat": 6408,
            "sampler": "sampler_0",
            "source": "ID20",
            "target": 3553,
            "type": 5121
        },
        "texture_ID7": {
            "format": 6408,
            "internalFormat": 6408,
            "sampler": "sampler_0",
            "source": "ID7",
            "target": 3553,
            "type": 5121
        }
    }
}